{
	"asset":{
		"generator":"Khronos glTF Blender I/O v4.3.47",
		"version":"2.0"
	},
	"scene":0,
	"scenes":[
		{
			"name":"Scene",
			"nodes":[
				0
			]
		}
	],
	"nodes":[
		{
			"mesh":0,
			"name":"Rigid_Bracelets_2",
			"rotation":[
				0.7057235240936279,
				0.04420723766088486,
				-0.04420723766088486,
				0.7057235836982727
			],
			"scale":[
				0.05344138294458389,
				0.05344138294458389,
				0.05344138294458389
			],
			"translation":[
				-3.1571550369262695,
				0.27487683296203613,
				0.2663446366786957
			]
		}
	],
	"materials":[
		{
			"doubleSided":true,
			"name":"Material.001",
			"pbrMetallicRoughness":{
				"baseColorFactor":[
					1,
					0.6796054840087891,
					0,
					1
				],
				"roughnessFactor":0
			}
		}
	],
	"meshes":[
		{
			"name":"Rigid_Bracelets_2",
			"primitives":[
				{
					"attributes":{
						"POSITION":0,
						"NORMAL":1
					},
					"indices":2,
					"material":0
				}
			]
		}
	],
	"accessors":[
		{
			"bufferView":0,
			"componentType":5126,
			"count":3547578,
			"max":[
				94.49883270263672,
				35.156002044677734,
				6.254666805267334
			],
			"min":[
				36.250831604003906,
				-25.711999893188477,
				-6.042666912078857
			],
			"type":"VEC3"
		},
		{
			"bufferView":1,
			"componentType":5126,
			"count":3547578,
			"type":"VEC3"
		},
		{
			"bufferView":2,
			"componentType":5125,
			"count":7158294,
			"type":"SCALAR"
		}
	],
	"bufferViews":[
		{
			"buffer":0,
			"byteLength":42570936,
			"byteOffset":0,
			"target":34962
		},
		{
			"buffer":0,
			"byteLength":42570936,
			"byteOffset":42570936,
			"target":34962
		},
		{
			"buffer":0,
			"byteLength":28633176,
			"byteOffset":85141872,
			"target":34963
		}
	],
	"buffers":[
		{
			"byteLength":113775048,
			"uri":"untitled.bin"
		}
	]
}
